<svg id="Livello_1" data-name="Livello 1" xmlns="http://www.w3.org/2000/svg" viewBox="0 0 131.1 89.48"><defs><style>.cls-1,.cls-2,.cls-3,.cls-4,.cls-5,.cls-6,.cls-7,.cls-8{isolation:isolate;}.cls-2,.cls-3{font-size:31.74px;fill:red;}.cls-2,.cls-3,.cls-4,.cls-5,.cls-6,.cls-7,.cls-8{font-family:Calibri-Bold, Calibri;font-weight:700;}.cls-2{letter-spacing:-0.03em;}.cls-3{letter-spacing:-0.05em;}.cls-4,.cls-5,.cls-6,.cls-7,.cls-8{font-size:12.28px;fill:#606060;}.cls-4{letter-spacing:-0.07em;}.cls-5{letter-spacing:-0.08em;}.cls-6{letter-spacing:-0.09em;}.cls-7{letter-spacing:-0.07em;}.cls-8{letter-spacing:-0.08em;}</style></defs><g id="Livello_2" data-name="Livello 2"><g id="Livello_1-2" data-name="Livello 1-2"><path d="M13.88,62.8s-.12-4,6.53-7.45c0,0,3.14-1.49,18.73-2.88,0,0,19-1.51,25.39-7.92,0,0-.61,7.62-15.6,13.78,0,0,10.52,3.51,18.62-13.78,0,0,3.26,6.89-6.89,16.68,0,0,6.77.73,10.4-14.38,0,0,2.29-8,9.18-9.92,0,0,34.21-11.54,44.85-27.1,0,0-1.21,7-13.3,17.31,0,0-6.89,5.56-24.79,12.45,0,0-9.43,2.18-12.33,14.63,0,0-3.14,16-19.46,28.77,0,0-8.57,6.41-8.7,16.32,0,0-4.23-2.66-8.95-13.42,0,0-3.38-10.64-9.91-9.31,0,0,1.36.85-1.72,3.48,0,0-3.9,1.09-7.26,6.25l-.46,3.63a8.87,8.87,0,0,1-4.35,1.27c-2.61.09-5.51-2.72-5.51-2.72l1.81-6.17s2.36-8.43.82-11.87a9.16,9.16,0,0,1,1.17-3.81,11.71,11.71,0,0,1-3.08-5.35l1.18.27-.36-1.17A23.79,23.79,0,0,1,13.88,62.8Z" transform="translate(-8.35 -9.83)"/><path d="M57.85,87.13s30.64-8.89,17.32-14.78c0,0,7.43-1,11.69,1.72S73.35,85,68.37,85.68,57.85,87.13,57.85,87.13Z" transform="translate(-8.35 -9.83)"/><path d="M75.62,70.81a20.06,20.06,0,0,1,13.24-2.08c7.16,1.54,13.87,2.78,15.68.85,0,0-2.36,4.86-13.6,3.23C90.94,72.81,81.6,69.18,75.62,70.81Z" transform="translate(-8.35 -9.83)"/><path d="M108.5,61.79a32.59,32.59,0,0,1-3.18,1.15,33.54,33.54,0,0,1-16.83.49,14.58,14.58,0,0,0-3.84.24,15.14,15.14,0,0,0-6.76,3.24,15.38,15.38,0,0,1,10.79-.55,21.55,21.55,0,0,0,8.46.57A22.09,22.09,0,0,0,108.5,61.79Z" transform="translate(-8.35 -9.83)"/><path d="M113.7,50.68s-1.55,6.53-11.25,8.35c0,0-18.58,1.36-20.21,2.63,0,0,1.62-4,10.61-4.81C92.85,56.86,112.43,53.85,113.7,50.68Z" transform="translate(-8.35 -9.83)"/><path d="M120.84,24.25a35.9,35.9,0,0,1-3.79,4.28,38.52,38.52,0,0,1-18.22,9.64s-18,4.35-20,14.87c0,0,5.53-6.72,23.48-11.88a24.64,24.64,0,0,0,9.27-4A25.55,25.55,0,0,0,120.84,24.25Z" transform="translate(-8.35 -9.83)"/><path d="M80.33,57.39s2.36-6.72,13-8.88c0,0,18.09-3.27,23.71-9.61a15.34,15.34,0,0,1-1.72,3.75A16.37,16.37,0,0,1,108,48.76c-1.23.34-3.09.85-5.37,1.41-3.94,1-6.78,1.54-7.64,1.73A61.73,61.73,0,0,0,80.33,57.39Z" transform="translate(-8.35 -9.83)"/><g class="cls-1"><text class="cls-2" transform="translate(29.1 73.99)">P</text><text class="cls-3" transform="translate(44.98 73.99)">E</text><text class="cls-2" transform="translate(58.98 73.99)">GASO</text></g><g class="cls-1"><text class="cls-4" transform="translate(45.6 83.01)">soci</text><text class="cls-4" transform="translate(62.02 83.01)">e</text><text class="cls-5" transform="translate(67.3 83.01)">t</text><text class="cls-4" transform="translate(70.63 83.01)">à </text><text class="cls-4" transform="translate(77.85 83.01)">c</text><text class="cls-4" transform="translate(82.12 83.01)">oope</text><text class="cls-6" transform="translate(104.85 83.01)">r</text><text class="cls-5" transform="translate(108.13 83.01)">a</text><text class="cls-7" transform="translate(113.27 83.01)">ti</text><text class="cls-8" transform="translate(119.65 83.01)">v</text><text class="cls-4" transform="translate(124.47 83.01)">a</text></g></g></g></svg>